<?xml version="1.0" standalone="no"?>
<!DOCTYPE svg PUBLIC "-//W3C//DTD SVG 20010904//EN"
 "http://www.w3.org/TR/2001/REC-SVG-20010904/DTD/svg10.dtd">
<svg version="1.0" xmlns="http://www.w3.org/2000/svg"
 width="2001.000000pt" height="2001.000000pt" viewBox="0 0 2001.000000 2001.000000"
 preserveAspectRatio="xMidYMid meet">
<metadata>
Created by potrace 1.11, written by Peter Selinger 2001-2013
</metadata>
<g transform="translate(0.000000,2001.000000) scale(0.100000,-0.100000)"
fill="#000000" stroke="none">
<path d="M9475 19999 c-458 -27 -915 -82 -1325 -160 -1761 -335 -3375 -1125
-4738 -2318 -197 -172 -601 -568 -782 -766 -833 -911 -1488 -1959 -1935 -3095
-638 -1619 -838 -3379 -584 -5119 283 -1932 1146 -3759 2469 -5226 186 -207
424 -448 621 -631 l165 -154 32 -84 c89 -233 238 -480 371 -614 145 -146 249
-203 486 -262 147 -37 167 -40 301 -40 l143 0 143 -86 c1951 -1177 4187 -1647
6458 -1358 770 98 1577 303 2300 584 102 40 193 74 202 77 17 5 18 -19 20
-372 l3 -378 500 623 c275 343 505 625 510 626 6 2 235 -274 510 -612 275
-339 506 -620 512 -626 11 -8 13 142 13 756 l0 766 1043 0 1044 0 6 137 c4 75
7 212 7 305 l0 168 -87 1 c-49 1 -112 4 -142 7 l-54 7 -52 120 c-114 260 -210
554 -269 814 l-25 114 27 33 c15 17 84 96 154 175 1316 1489 2169 3377 2412
5339 88 708 102 1434 41 2140 -147 1697 -742 3351 -1713 4763 -1174 1707
-2846 3016 -4767 3732 -882 329 -1767 522 -2745 601 -230 18 -1046 27 -1275
13z"/>
</g>
</svg>
